<svg xmlns="http://www.w3.org/2000/svg" viewBox="0 0 180 160" xml:space="preserve"><path fill="#FCFEFE" d="M69 161c-2.042 0-4.083 0-6.623-.465-.508-15.075-.592-29.684-.477-44.292.03-3.77-1.025-5.234-4.9-3.67V161c-2.042 0-4.083 0-6.7-.331-8.14-16.486-15.705-32.641-23.27-48.796l-1.434-.02L3 161c-.667-.332-1.784-.546-1.909-1.021-.287-1.09-.091-2.307-.091-3.473V1.078h180c0 36.609 0 73.297-.37 110.446-1.104.532-1.838.602-2.93.6-.68.909-1.004 1.889-1.415 3.33-.028 9.136.033 17.811-.009 26.747-.04.437.02.613-.011 1.207-.078 1.844-.063 3.27-.374 4.658-1.066-.487-1.805-.937-2.636-1.338-.093.047.083-.036.03-.28-.21-.566-.465-.765-.858-.843-.041-.003-.023-.085-.087-.299-.223-.489-.458-.657-.816-.74-.045-.024-.042-.125-.146-.423-1.556-1.862-3.008-3.425-4.448-5.037.012-.049-.088-.048-.13-.285-.22-.54-.482-.705-.932-1.005-.658-.8-1.215-1.326-1.872-2.162-1.283-1.533-2.467-2.756-3.815-3.899-.164.08.147-.11.06-.41-1.1-1.352-2.112-2.406-3.224-3.76-.976-1.22-1.85-2.14-2.79-3.27-.222-.474-.44-.667-.85-1.072-1.233-1.452-2.337-2.62-3.594-4.009-.323-.278-.493-.335-.7-.341-.037.05.077 0 .018-.266-.355-.451-.652-.637-.985-.762-.037.06.085-.013.033-.278-.336-.467-.62-.667-.938-.762-.033.106.087-.08.046-.296-.041-.216-.368-.51-.47-.824-1.165-1.333-2.225-2.35-3.286-3.369l-1.501.578V161c-2.37 0-4.741 0-7.601-.424-.132-3.287-1.028-4.669-4.277-4.553-6.259.223-12.531.065-18.836.065V136.87h22.056c1.263-3.714.14-4.988-3.311-4.903-6.257.154-12.52.044-18.744.044v-15.198h22.641l-.221-4.526H106V161c-3.03 0-6.061 0-9.548-.43.006-3.4-1.076-4.608-4.25-4.452-4.9.24-9.821.063-15.434.063 1.687-4.053 3.066-7.367 4.705-10.928.463-.925.668-1.603.91-2.344.036-.063.046-.208.306-.443.672-1.313 1.083-2.39 1.578-3.543.084-.076.06-.3.328-.52.667-1.277 1.066-2.336 1.568-3.5.102-.103.084-.394.34-.608.454-.843.652-1.47.758-2.15-.093-.05.05.105.317-.097 1.25-2.491 2.234-4.78 3.373-7.266.224-.523.292-.848.632-1.402a25.16 25.16 0 0 0 1.676-4.236c-.09-.063.044.11.32-.095 1.269-2.32 2.263-4.437 3.408-6.876-8.236 0-15.6 0-23.287-.075-.757-.007-1.19.06-2.008.244-.46 1.498-.536 2.88-.62 4.417 6.04 0 11.498 0 17.202.169.402.52.559.872.49 1.454-.828 1.643-1.432 3.055-2.274 4.605-.315.482-.394.827-.663 1.444-1.811 4.039-3.43 7.806-5.119 11.643-.068.07-.055.267-.326.497-1.625 3.3-2.979 6.37-4.488 9.622-.342.46-.41.765-.62 1.33-1.296 2.64-2.33 5.045-3.594 7.69-1.047 2.09-1.863 3.938-2.68 5.787m29.647-99.92-6.154 2.783c7.545 1.24 12.624 5.527 12.172 11.565-.462 6.16-3.55 11.505-9.4 13.71-12.662 4.772-29.447.144-35.782-10.941-1.753-3.067-3.705-6.02-5.937-9.623L35.37 100.6c2.398.173 3.826.36 5.254.366 13.49.05 26.99.365 40.468-.045 5.538-.168 11.228-1.32 16.494-3.086 7.744-2.597 12.062-8.82 13.238-16.716 1.323-8.882-3.45-19.43-12.176-20.038m-13.182 3.787 3.127 1.639c0-3.205-.616-6.178.111-8.777 2.508-8.967 16.487-11.135 23.593-3.842 8.8 9.033 10.585 25.303 4.055 36.136-1.906 3.163-3.554 6.48-5.546 10.141h38.14c-1.1-2.296-1.719-3.812-2.521-5.223-6.319-11.111-12.45-22.338-19.116-33.237-2.997-4.898-6.64-9.594-10.772-13.567-9.294-8.934-22.136-7.847-30.282 2.018-3.912 4.738-4.3 8.881-.79 14.712m-10.651 4.794c-3.405-3.886-4.672-8.417-3.718-13.454 2.261-11.934 14.618-22.11 26.795-22.172 3.897-.02 7.793-.003 12.8-.003L91.813 1.876c-5.871 10.138-11.205 19.105-16.29 28.21-3.79 6.784-8.12 13.443-10.682 20.697-4.666 13.209 1.875 25.428 14.298 28.71 9.48 2.506 16.012-2.751 14.316-11.52-5.109 7.625-10.402 8.292-18.642 1.69z"/><path fill="#F1FAFB" d="M179 161c-10.354 0-20.708 0-31.388-.45a663.754 663.754 0 0 1-.032-35.318c1.567 1.05 2.833 2.046 4.205 2.916.107-.124-.097.124-.031.373.333.446.6.644.919.65.05-.193-.079.185.004.457.498.64.914 1.008 1.402 1.605.235.53.48.723.901 1.111.976 1.167 1.861 2.033 2.889 2.83.142-.068-.146.054-.075.31.357.446.642.636 1.013.7.085-.126-.121.098-.049.344.345.438.616.63.99.737.101-.085-.11.095-.051.326.212.534.453.727.828.829.045.02.063.116.126.315.213.455.433.612.77.703.048.034.064.148.152.415.5.635.914 1.002 1.392 1.575.229.467.461.625.857.943.395.466.696.668 1.018.808.02-.062-.088.01-.026.27.344.459.624.658.978.73.074-.126-.113.1-.053.349.326.446.591.644 1.017.775.16-.067-.139.11-.072.333.232.513.476.694.845.785.045.017.059.112.124.316.223.466.452.624.8.7.046.022.038.125.125.385.489.615.891.969 1.339 1.275.045-.048-.077 0-.013.264.35.465.638.666.949.813.023-.056-.087-.006-.017.255.36.457.65.652.98.772.04-.075-.096.025-.025.278.346.451.623.65.968.677.07-.17-.098.157-.033.397.234.555.492.75.914.801.073-.023-.03.092.041.313.244.505.492.676.935.697.117-.039-.085.101 0 .374.5.644.912 1.017 1.404 1.601.242.488.48.662.872.998.37.471.66.678.964.814.013-.072-.078.042 0 .346.432 1.037.788 1.77 1.144 2.503z"/><path fill="#1981BB" d="M3.428 161c7.104-16.382 14.636-32.765 22.168-49.147l1.435.02c7.564 16.155 15.129 32.31 22.831 48.796-1.576.331-3.29.331-5.407-.035-6.756-15.679-6.756-15.679-22.994-15.673-1.166 0-2.375-.19-3.485.06-1.014.23-2.434.7-2.79 1.472C12.985 151.264 11.034 156.15 9 161H3.428m24.28-35.855c-.34-.559-.68-1.118-1.477-2.423l-7.865 17.002h16.115c-2.343-5.022-4.42-9.477-6.772-14.58z"/><path fill="#1882BC" d="M106.469 161C106 144.877 106 128.755 106 112.288h27.707l.221 4.526h-22.641v15.198c6.225 0 12.487.11 18.744-.044 3.452-.085 4.574 1.19 3.311 4.903h-22.056v19.217c6.305 0 12.577.158 18.836-.065 3.25-.116 4.145 1.266 3.833 4.553-8.976.424-17.997.424-27.486.424z"/><path fill="#F8FDFD" d="M9.469 161c1.565-4.849 3.516-9.736 5.717-14.507.356-.773 1.776-1.243 2.79-1.472 1.11-.25 2.32-.06 3.485-.06 16.238-.006 16.238-.006 22.566 15.673C32.646 161 21.292 161 9.469 161z"/><path fill="#0F7FBE" d="M75.536 147.289c-.052-.331.016-.636.703-1.16 1.805-3.427 3.11-6.607 4.414-9.788 0 0-.013-.196.388-.407 1.926-4.065 3.452-7.92 4.977-11.774.078-.346.157-.69.822-1.262 1.108-1.733 1.628-3.24 2.15-4.746-.157-.352-.314-.704-.787-1.518-3.963-.538-7.609-.681-11.254-.663-2.673.013-5.198.048-4.872-3.745.433-.068.866-.135 1.94.133 6.99.336 13.337.336 20.065.336l-.779 6.559s-.134-.173-.4.01c-.708 1.57-1.15 2.957-1.591 4.345-.069.325-.137.65-.695 1.244-1.428 2.645-2.367 5.021-3.306 7.397 0 0-.143-.155-.395.024-.39.865-.53 1.55-.67 2.235 0 0 .02.291-.412.56-.79 1.364-1.148 2.459-1.507 3.554 0 0 .024.224-.41.457-.786 1.362-1.137 2.491-1.488 3.62 0 0-.01.146-.381.397-.526.969-.68 1.686-.835 2.404l-4.445 10.68c5.613 0 10.533.178 15.433-.063 3.175-.156 4.257 1.051 3.797 4.453-8.686.429-17.373.429-26.53.429.349-1.849 1.165-3.697 2.533-5.933 1.546-2.852 2.54-5.315 3.535-7.778z"/><path fill="#1D81B9" d="M57.417 161C57 144.92 57 128.84 57 112.573c3.875-1.564 4.93-.1 4.9 3.67-.115 14.608-.031 29.217.04 44.292-1.329.465-2.718.465-4.523.465z"/><path fill="#067DC0" d="M176.813 157.073c-.313-.072-.55-.246-.804-1.066-.553-.877-1.015-1.21-1.478-1.542 0 0 .202-.14.134-.393-.397-.377-.726-.502-1.055-.626 0 0 .103-.115.058-.383-.366-.43-.686-.59-1.007-.75 0 0 .168-.326.089-.446a8.205 8.205 0 0 0-1.03-.64s.137-.101.058-.308c-.389-.388-.7-.57-1.012-.751 0 0 .11-.05.04-.269-.37-.413-.668-.607-.966-.802 0 0 .122-.048.089-.336-.502-.592-.97-.895-1.438-1.199 0 0 .008-.103.039-.409-.294-.41-.618-.515-.942-.62 0 0-.014-.095-.007-.402-.316-.444-.64-.581-.964-.719 0 0 .299-.176.157-.4-.459-.394-.777-.563-1.095-.733 0 0 .187-.226.098-.386-.401-.34-.713-.522-1.025-.703 0 0 .108-.073.029-.298-.404-.411-.728-.598-1.052-.785-.303-.054-.535-.212-.76-1.022-.537-.866-1.01-1.182-1.484-1.499 0 0-.016-.114.023-.426-.28-.415-.6-.52-.92-.624 0 0-.018-.096-.009-.404-.307-.462-.624-.617-.941-.772 0 0 .211-.18.108-.384a4.636 4.636 0 0 0-1.06-.694s.206-.224.096-.382c-.427-.33-.743-.501-1.059-.672 0 0 .288-.122.232-.456.753-1.265 1.563-2.196 2.373-3.127 0 0-.31.19-.226.474 1.388 1.47 2.69 2.658 3.993 3.845.558.526 1.115 1.052 1.848 2.068.345.766.587.944.899 1.026 0 0 .1 0 .102.4 1.514 1.93 3.026 3.456 4.538 4.983 0 0-.003.101-.028.41.3.43.625.55.95.669 0 0-.018.082-.017.376.318.461.634.629.951.796 0 0-.176.083-.16.392.92 1.122 1.825 1.935 2.73 2.748l.31-1.728c-.016-1.426-.031-2.852.223-4.82.451-.77.588-1.023.95-1.613.374-9.463.477-18.613.594-28.047.033-.666.053-1.047.073-1.428.734-.07 1.468-.14 2.572-.203.37 15.361.37 30.715.053 46.416-1.18.159-2.042-.029-2.905-.216 0 0 .091-.114.023-.321-.376-.404-.682-.602-.988-.8z"/><path fill="#037CC2" d="M146 161c-.444 0-.889 0-1.707-.467-.382-14.042-.443-27.617-.293-41.19.012-1.035-2.089-4.31 2.127-3.09.498.309.834.4 1.17.491 0 0-.12.187-.061.362.36.366.662.556.965.746 0 0-.122.073-.036.284.39.393.692.574.995.756 0 0-.114.051-.054.246.19.507.393.76.768 1.262.522 1.054.944 1.801 1.099 2.812-1.814.753-3.36 1.241-4.926 2.202-.029 12.176-.038 23.881-.047 35.586z"/><path fill="#4195C1" d="M145.965 116.037c-4.054-1.005-1.953 2.271-1.965 3.306-.15 13.573-.09 27.148-.04 41.19-.404.467-.849.467-1.627.467-.333-16.029-.333-32.058-.333-48.086l1.501-.578c1.06 1.018 2.121 2.036 3.054 3.376-.128.322-.59.325-.59.325z"/><path fill="#0C6FA7" d="M146.25 161c-.24-11.705-.232-23.41.1-35.532.525-.375.727-.333.928-.29.003 11.64.006 23.28-.135 35.372-.143.45-.643.45-.893.45z"/><path fill="#2787BC" d="M177.855 158.497c.786-.117 1.649.071 2.828.38-.016.79-.35 1.456-1.183 2.123-.856-.733-1.212-1.466-1.645-2.503z"/><path fill="#BCB5D4" d="M99.029 61.083c8.344.605 13.117 11.154 11.794 20.036-1.176 7.896-5.494 14.119-13.238 16.716-5.266 1.766-10.956 2.918-16.494 3.086-13.478.41-26.977.095-40.468.045-1.428-.006-2.856-.193-5.254-.366l18.177-32.026c2.232 3.603 4.184 6.556 5.937 9.623 6.335 11.085 23.12 15.713 35.783 10.94 5.85-2.204 8.937-7.549 9.399-13.71.452-6.037-4.627-10.323-12.172-11.564 2.051-.927 4.103-1.855 6.536-2.78z"/><path fill="#BCB5D5" d="M85.195 64.602c-3.241-5.565-2.853-9.708 1.059-14.446 8.146-9.865 20.988-10.952 30.282-2.018 4.133 3.973 7.775 8.669 10.772 13.567 6.667 10.899 12.797 22.126 19.116 33.237.802 1.411 1.42 2.927 2.521 5.223h-38.14c1.992-3.66 3.64-6.978 5.546-10.14 6.53-10.834 4.746-27.104-4.055-36.137-7.106-7.293-21.085-5.125-23.593 3.842-.727 2.599-.111 5.572-.111 8.777-.52-.272-1.824-.955-3.397-1.905z"/><path fill="#BCB6D4" d="M75.028 69.966c8.025 6.3 13.318 5.632 18.427-1.993C95.15 76.742 88.619 82 79.139 79.493c-12.423-3.282-18.964-15.501-14.298-28.71 2.562-7.254 6.892-13.913 10.681-20.697 5.086-9.105 10.42-18.072 16.291-28.21l18.877 32.157c-5.007 0-8.903-.017-12.8.003-12.177.063-24.534 10.238-26.795 22.172-.954 5.037.313 9.568 3.933 13.758z"/><path fill="#0275B3" d="M177.972 113.908c-.104 9.15-.207 18.3-.766 27.733-.455.283-.828.3-.828.3-.06-8.676-.12-17.351.12-26.605.691-.861 1.082-1.144 1.474-1.428z"/><path fill="#3188B7" d="M93.579 119.05c-.067-1.553.142-3.31.503-6.355-6.728 0-13.076 0-19.741-.261 7.046-.261 14.41-.261 22.646-.261-1.145 2.439-2.14 4.555-3.408 6.876z"/><path fill="#3188B7" d="M71.692 112.342c.059 3.677 2.584 3.642 5.257 3.629 3.645-.018 7.291.125 11.009.494-5.388.294-10.846.294-16.886.294.084-1.537.16-2.919.62-4.417z"/><path fill="#3389B6" d="M85.827 124.431c-1.334 3.583-2.86 7.438-4.718 11.432 1.287-3.626 2.907-7.393 4.718-11.432zM80.382 136.57a76.59 76.59 0 0 1-3.988 9.378c1.01-3.006 2.363-6.077 3.988-9.377z"/><path fill="#2787BC" d="M160.24 131.346c-.722 1.23-1.532 2.161-2.428 3.494-.97-.463-1.856-1.329-2.52-2.645.649-1.633 1.076-2.816 1.584-4.077l.242-.232c1.011 1.053 2.023 2.107 3.122 3.46z"/><path fill="#3389B6" d="M75.274 147.523a53.218 53.218 0 0 1-3.043 7.303c.713-2.258 1.747-4.663 3.043-7.303z"/><path fill="#3186B9" d="M87.578 132.048a42.31 42.31 0 0 1 2.884-6.996c-.65 2.217-1.633 4.505-2.884 6.996z"/><path fill="#2787BC" d="M171.378 144.143a37.554 37.554 0 0 1-4.446-4.636c1.438 1.21 2.89 2.774 4.446 4.636zM163.996 135.654a19.157 19.157 0 0 1-3.73-3.616c1.263.86 2.447 2.083 3.73 3.616z"/><path fill="#4195C1" d="M151.24 122.948c-.422-.747-.844-1.494-1.32-2.706-.056-.465.016-.786.016-.786 1.104 1.168 2.208 2.335 3.313 3.902.001.4-.247.64-.477.522-.664-.389-1.098-.66-1.532-.932z"/><path fill="#2787BC" d="M175.891 148.066c.224.614.12 1.19.018 1.766-.906-.813-1.81-1.626-2.64-2.795.817.092 1.556.542 2.622 1.03z"/><path fill="#3188B7" d="M88.765 118.382a17.402 17.402 0 0 1-1.688 4.379c.255-1.324.86-2.736 1.688-4.379z"/><path fill="#2787BC" d="M154.292 124.526c.875.919 1.75 1.838 2.725 3.059.1.3-.06.456-.445.425a12.135 12.135 0 0 1-2.506-3.054c.085-.138.226-.43.226-.43z"/><path fill="#3188B7" d="M91.583 123.38c.17-1.159.612-2.546 1.41-4.054-.142 1.195-.64 2.51-1.41 4.054z"/><path fill="#2787BC" d="M177.985 113.624c-.405.568-.796.85-1.4 1.251a5.814 5.814 0 0 1 1.115-2.75c.338.452.318.833.285 1.499z"/><path fill="#3186B9" d="M84.595 138.404c.09-.876.449-1.971 1.137-3.231-.07.894-.47 1.953-1.137 3.23zM82.69 142.466c.09-.895.44-2.024 1.142-3.31-.06.92-.47 1.997-1.143 3.31zM81.473 145.253c-.105-.47.05-1.187.538-2.093.13.49-.075 1.168-.538 2.093zM86.503 134.295c-.117-.47.022-1.156.506-1.97.146.5-.052 1.127-.506 1.97z"/><path fill="#2787BC" d="M172.34 145.306c-.261.094-.586-.025-.841-.43.383-.227.618-.059.841.43z"/><path fill="#4195C1" d="M153.378 123.643c.41.005.627.198.848.672a.44.44 0 0 1-.371.544c-.296.042-.74-.092-.768-.284l-.085-.577s.248-.24.376-.355z"/><path fill="#2787BC" d="M146.127 116.254c-.162-.217.3-.22.531-.227.231-.007.558.286.599.502-.296.124-.632.033-1.13-.275zM148.15 117.587c-.252.075-.554-.115-.881-.587.26-.08.544.12.88.587zM173.285 146.448c-.264.077-.58-.09-.856-.549.391-.216.645-.017.856.55zM149.783 119.234c.153.222.081.543.036.701-.32-.037-.523-.29-.676-.847.147-.189.317-.132.64.146zM176.276 142.2c.102-.26.475-.276.66-.246.093.307-.044.56-.402.912-.238-.052-.299-.228-.258-.665zM149.1 118.627c-.243.083-.545-.098-.898-.552.247-.085.544.1.899.552zM166.8 138.82c-.27.156-.512-.022-.757-.513.275-.19.538-.026.757.514z"/><path fill="#067DC0" d="M153.116 124.767s.443.134.654.23c.946 1.059 1.682 2.02 2.722 3.09-.124 1.292-.551 2.475-1.29 3.807-.642.062-.888-.132-1.146-.98-.55-.885-1.006-1.222-1.462-1.558 0 0 .13-.378.088-.476a7.28 7.28 0 0 0-.994-.608s.204-.248.19-.506c.403-1.171.82-2.085 1.238-2.999z"/><path fill="#2787BC" d="M153.087 124.575c-.389 1.106-.806 2.02-1.316 3.316-1.358-.613-2.624-1.609-4.191-2.659-.503-.097-.705-.14-1.21-.236 1.243-.543 2.789-1.031 4.603-1.784.7.008 1.135.279 1.799.668.23.118.286.503.315.695zM174.617 154.738c.377.06.84.392 1.313 1.057-.402-.04-.814-.413-1.313-1.057zM168.578 147.822c.381.044.85.347 1.306.987-.415-.018-.817-.372-1.306-.987zM161.573 139.853c.385.05.859.366 1.33 1.026-.416-.024-.83-.391-1.33-1.026zM152.677 129.628c.373.064.828.401 1.306 1.057-.392-.05-.808-.417-1.306-1.057zM151.754 128.52c.252-.078.57.092.877.553-.277.092-.544-.106-.877-.552zM176.892 157.337c.227-.067.533.13.895.607-.234.071-.525-.136-.895-.607zM173.681 153.667c.258-.097.587.028.867.444-.375.232-.623.061-.867-.444zM172.726 152.553c.256-.08.576.08.868.533-.376.216-.634.022-.868-.533zM171.79 151.48c.247-.08.564.094.89.557-.266.091-.543-.107-.89-.558zM170.836 150.43c.242-.08.553.1.903.564-.253.087-.543-.108-.903-.565zM169.904 149.36c.234-.068.533.126.878.595-.24.072-.527-.13-.878-.594zM167.653 146.737c.259-.099.583.006.83.395-.378.23-.607.071-.83-.395zM159.697 137.591c.258-.076.575.079.838.521-.385.206-.626.013-.838-.521zM166.684 145.636c.257-.086.58.051.852.478-.376.216-.62.035-.852-.478zM165.74 144.528c.257-.08.575.09.874.55-.284.094-.55-.104-.875-.55zM164.814 143.449c.25-.078.562.104.89.572-.266.086-.546-.113-.89-.572zM163.822 142.371c.231-.077.555.11.938.583-.242.085-.543-.117-.938-.583zM157.794 135.484c.245-.085.561.086.903.542-.26.094-.546-.096-.903-.542zM158.758 136.528c.247-.083.566.08.887.533-.27.097-.542-.095-.887-.533zM160.651 138.735c.257-.094.577.01.81.392-.377.22-.597.063-.81-.392z"/><path fill="#EAF8FA" d="M27.845 125.469c2.215 4.778 4.293 9.233 6.636 14.255H18.366l7.865-17.002c.797 1.305 1.137 1.864 1.614 2.747z"/></svg>